:FULLY-SPECIFIED
:DEGREES
593
root -0.462399 15.7144 -1.76161 1619.19 -82.8542 -1613.87
lowerback 2.42619 2.95813 -3.77358
upperback -2.7185 3.77192 0.092488
thorax -4.4218 1.98877 1.96264
lowerneck -17.7256 -0.23752 1.76393
upperneck 27.2296 -0.854588 -1.54991
head 11.8524 -0.564079 -1.04332
rclavicle -2.78299e-014 1.19271e-015
rhumerus -16.4208 4.71169 -92.4826
rradius 39.5114
rwrist -4.90162
rhand -32.9597 -17.0712
rfingers 7.12502
rthumb -6.17529 -46.9612
lclavicle -2.78299e-014 1.19271e-015
lhumerus -38.5913 6.91925 87.3571
lradius 13.7719
lwrist -8.91351
lhand -30.2381 15.4511
lfingers 7.12502
lthumb -3.5474 45.4014
rfemur 1.95041 3.06042 21.9305
rtibia 34.6513
rfoot -3.17049 -2.5844
rtoes -33.206
lfemur -26.4267 -7.23995 -20.0106
ltibia 27.9606
lfoot -6.2535 9.03035
ltoes -8.02613
594
root -0.473608 15.7129 -1.72486 1620.63 -82.8441 -1615.5
lowerback 2.62152 2.92161 -3.83924
upperback -2.71408 3.7093 0.0248501
thorax -4.52384 1.95971 1.92348
lowerneck -17.8112 -0.228619 1.78221
upperneck 27.2525 -0.837732 -1.58519
head 11.8787 -0.559016 -1.05799
rclavicle 1.98785e-016 1.09332e-014
rhumerus -17.2525 3.81938 -92.5007
rradius 38.6277
rwrist -4.21529
rhand -32.7589 -17.129
rfingers 7.12502
rthumb -5.9814 -47.0246
lclavicle 1.98785e-016 1.09332e-014
lhumerus -37.9673 7.1266 87.2142
lradius 13.3122
lwrist -10.0637
lhand -30.4469 15.0298
lfingers 7.12502
lthumb -3.74905 44.9766
rfemur 0.214184 2.90602 21.276
rtibia 37.8793
rfoot -0.220069 -2.20682
rtoes -31.6822
lfemur -25.6583 -6.62905 -20.7149
ltibia 28.0621
lfoot -6.19085 8.54927
ltoes -7.42565
595
root -0.484739 15.7218 -1.69328 1623.3 -82.7068 -1618.34
lowerback 2.71521 2.89483 -4.18463
upperback -2.6617 3.65164 -0.0350014
thorax -4.53822 1.94035 2.05455
lowerneck -17.8255 -0.190303 1.75771
upperneck 27.0915 -0.758169 -1.61535
head 11.8204 -0.527749 -1.05039
rclavicle 4.37326e-015 9.34288e-015
rhumerus -17.9522 2.3951 -92.3489
rradius 37.5342
rwrist -1.62799
rhand -31.4432 -17.9575
rfingers 7.12502
rthumb -4.71106 -47.8852
lclavicle 4.37326e-015 9.34288e-015
lhumerus -37.245 7.20759 87.2461
lradius 13.1835
lwrist -10.4858
lhand -30.3899 15.3099
lfingers 7.12502
lthumb -3.694 45.2576
rfemur -1.595 2.92291 20.4998
rtibia 41.1269
rfoot 2.93625 -2.07382
rtoes -28.8581
lfemur -24.8016 -6.22749 -21.4893
ltibia 27.9952
lfoot -6.47453 8.26945
ltoes -6.72358
596
root -0.494849 15.7229 -1.66489 1627.35 -82.447 -1622.68
lowerback 2.87011 2.89846 -4.77603
upperback -2.56508 3.61757 -0.143421
thorax -4.55612 1.9386 2.26858
lowerneck -17.8247 -0.119698 1.82017
upperneck 26.9466 -0.632762 -1.73992
head 11.7656 -0.479586 -1.08605
rclavicle -4.33351e-014 5.76476e-015
rhumerus -18.7659 1.87505 -92.4188
rradius 36.6516
rwrist -2.67643
rhand -32.0729 -17.0901
rfingers 7.12502
rthumb -5.31909 -47.0034
lclavicle -4.33351e-014 5.76476e-015
lhumerus -36.5421 7.29559 87.2768
lradius 13.1156
lwrist -10.9139
lhand -30.3353 15.3581
lfingers 7.12502
lthumb -3.64128 45.3067
rfemur -3.27637 3.05313 19.5487
rtibia 44.3827
rfoot 5.55005 -2.13652
rtoes -25.7149
lfemur -23.6367 -6.29581 -22.4181
ltibia 27.6532
lfoot -6.67829 8.53063
ltoes -6.68055
597
root -0.502917 15.7197 -1.63989 1631.1 -82.1453 -1626.74
lowerback 3.00876 2.9152 -5.34422
upperback -2.44468 3.60009 -0.290118
thorax -4.53686 1.94182 2.4304
lowerneck -17.8888 -0.0800795 1.8675
upperneck 26.8075 -0.57632 -1.76599
head 11.7256 -0.450402 -1.09331
rclavicle 2.18663e-014 0
rhumerus -19.5505 1.64181 -92.5998
rradius 36.0638
rwrist -4.68427
rhand -32.9766 -16.9816
rfingers 7.12502
rthumb -6.19167 -46.8711
lclavicle 2.18663e-014 0
lhumerus -35.8033 6.8784 87.5294
lradius 13.262
lwrist -10.6368
lhand -30.3339 15.3874
lfingers 7.12502
lthumb -3.63995 45.336
rfemur -4.9041 3.05496 18.61
rtibia 47.6389
rfoot 7.64995 -2.49929
rtoes -21.8977
lfemur -22.3328 -6.41235 -23.3464
ltibia 27.119
lfoot -7.03376 8.92353
ltoes -6.80504
598
root -0.506042 15.7144 -1.61776 1634.86 -81.8473 -1630.89
lowerback 3.34508 2.8927 -6.03136
upperback -2.36668 3.50904 -0.385283
thorax -4.67894 1.91687 2.70599
lowerneck -17.7828 -0.0101861 1.81378
upperneck 26.6397 -0.445318 -1.79438
head 11.6425 -0.399724 -1.07179
rclavicle 1.2921e-015 4.37326e-015
rhumerus -20.3236 0.931833 -92.5425
rradius 35.1301
rwrist -4.24948
rhand -32.649 -17.5637
rfingers 7.12502
rthumb -5.87538 -47.4623
lclavicle 1.2921e-015 4.37326e-015
lhumerus -35.1727 6.54985 87.8108
lradius 13.4817
lwrist -10.252
lhand -30.3581 15.4151
lfingers 7.12502
lthumb -3.66325 45.3633
rfemur -6.51426 3.0035 17.6826
rtibia 50.8901
rfoot 8.43728 -3.43209
rtoes -21.4331
lfemur -20.9024 -6.41975 -24.3198
ltibia 26.5009
lfoot -7.34802 9.06281
ltoes -6.43768
599
root -0.507641 15.7109 -1.60008 1638.82 -81.5483 -1635.26
lowerback 3.65241 2.83893 -6.80711
upperback -2.25937 3.3675 -0.503082
thorax -4.77149 1.86728 3.01506
lowerneck -17.7598 0.0917424 1.85379
upperneck 26.54 -0.28927 -1.86093
head 11.6027 -0.333327 -1.07824
rclavicle -1.38528e-014 -4.77083e-015
rhumerus -20.9053 0.17877 -92.5368
rradius 33.8734
rwrist -4.07552
rhand -32.7006 -17.3501
rfingers 7.12502
rthumb -5.92513 -47.2472
lclavicle -1.38528e-014 -4.77083e-015
lhumerus -34.5405 5.72067 88.3187
lradius 13.9461
lwrist -9.08047
lhand -30.4903 15.5497
lfingers 7.12502
lthumb -3.79098 45.4957
rfemur -8.03798 2.88063 16.754
rtibia 53.9659
rfoot 7.5311 -5.8536
rtoes -24.4821
lfemur -19.517 -6.01073 -25.4048
ltibia 25.8954
lfoot -7.58523 8.92582
ltoes -7.39772
